PathFileType	4	(X/Y/Z)	pose_F01_0-88.trc
DataRate	CameraRate	NumFrames	NumMarkers	Units	OrigDataRate	OrigDataStartFrame	OrigNumFrames
30	30	11	21	m	30	0	88
Frame#	Time	CHip			RHip			RKnee			RAnkle			RBigToe			RSmallToe			RHeel			LHip			LKnee			LAnkle			LBigToe			LSmallToe			LHeel			Neck			Nose			RShoulder			RElbow			RWrist			LShoulder			LElbow			LWrist			
		X1	Y1	Z1	X2	Y2	Z2	X3	Y3	Z3	X4	Y4	Z4	X5	Y5	Z5	X6	Y6	Z6	X7	Y7	Z7	X8	Y8	Z8	X9	Y9	Z9	X10	Y10	Z10	X11	Y11	Z11	X12	Y12	Z12	X13	Y13	Z13	X14	Y14	Z14	X15	Y15	Z15	X16	Y16	Z16	X17	Y17	Z17	X18	Y18	Z18	X19	Y19	Z19	X20	Y20	Z20	X21	Y21	Z21	
0	0.0	-0.2517544942772883	1.8784230752012634	-0.5329431862801273	-0.26723281993098746	1.876222165801522	-0.46814118840777763	-0.26726808335229296	1.7237351588213332	-0.42347796298384643													-0.2332339439452161	1.8826133484672587	-0.6003801259661035	-0.23036300085066935	1.7332717817067624	-0.5674250164177762	-0.21884633494048403	1.58414997676779	-0.5557501496456909	-0.2160774386309416	1.5523900773986745	-0.6380489202931449	-0.20657491713627638	1.5604995235358294	-0.6442318264233493	-0.22143625965509908	1.565708594789483	-0.5288127064537833	-0.24612132093248357	2.052863417026081	-0.5281340773705779	-0.25751538330294754	2.127528454200315	-0.5829947567910897	-0.27102714152424856	2.0528137285671373	-0.43259086579207306	-0.2749851824948605	1.9573469636740297	-0.4037019372775378	-0.2845741520244349	1.8834280312750327	-0.39785243616498744	-0.22210277165092956	2.0574389038833476	-0.6204212048523415	-1.4117584965585113	1.8720117411797816	0.620501198910058	-0.20052335901034307	1.9006459512841185	-0.6763879565490255
1	0.03333333333333333	-0.25080441910859647	1.8783300971426378	-0.5299412583330596	-0.26617913483859174	1.8760705297255154	-0.4649590875416371	-0.26922444506044885	1.7244693132073374	-0.4214518780303558													-0.2322881960187438	1.8827606278039557	-0.5971790467982898	-0.23033394474996932	1.7327223713041333	-0.5673972761746247	-0.2196849351953795	1.5831644578741597	-0.5592972581382102	-0.22054540101938627	1.5507899757747565	-0.642162297900419	-0.21089255821947295	1.5615126574754057	-0.648539763175898	-0.2217216422024117	1.5664926640411163	-0.5293434679108101	-0.24609132727771463	2.052851507992795	-0.5281295658531449	-0.257504744561122	2.127579843927197	-0.5829591539773608	-0.2692670105911853	2.0518014898325507	-0.43473665564318115	-0.2749890965013604	1.9586503941979727	-0.40413848034221356	-0.284471001423363	1.8821379356594485	-0.3974978702722495	-0.22202564055391366	2.056156513543312	-0.6199381019690169	-1.4117584965585113	1.8720117411797816	0.620501198910058	-0.20052335901034307	1.9006459512841185	-0.6763879565490255
2	0.06666666666666667	-0.24985434393990463	1.8782371190840121	-0.5269393303859919	-0.265125449746196	1.8759188936495088	-0.4617769866754966	-0.27118080676860473	1.7252034675933416	-0.4194257930768651													-0.23134244809227147	1.8829079071406527	-0.5939779676304762	-0.2303048886492693	1.7321729609015042	-0.5673695359314731	-0.22052353545027495	1.5821789389805294	-0.5628443666307295	-0.22501336340783096	1.5491898741508385	-0.6462756755076932	-0.21521019930266952	1.562525791414982	-0.6528476999284467	-0.2220070247497243	1.5672767332927495	-0.5298742293678369	-0.2460613336229457	2.0528395989595087	-0.5281250543357118	-0.25749410581929644	2.127631233654079	-0.5829235511636318	-0.26750687965812203	2.050789251097964	-0.43688244549428923	-0.2749930105078603	1.9599538247219157	-0.40457502340688933	-0.2843678508222911	1.8808478400438644	-0.3971433043795115	-0.22194850945689776	2.0548741232032763	-0.6194549990856922	-1.4117584965585113	1.8720117411797816	0.620501198910058	-0.20052335901034307	1.9006459512841185	-0.6763879565490255
3	0.1	-0.25082833141101674	1.87871153350345	-0.5299563745243419	-0.2661839093131735	1.875988146835349	-0.4649917180167006	-0.27118087428799	1.7251635863804025	-0.4194278596098401													-0.2331357576068541	1.8820603339521542	-0.600121155312387	-0.22959159578616015	1.7263673184174846	-0.5674956829342911	-0.2221882850379291	1.5827894566698122	-0.5612584455327738	-0.2245633503683898	1.5472210208281652	-0.6462785669125984	-0.21190814743925737	1.5614240942027806	-0.6517836746357231	-0.2239401047654466	1.5664369100246673	-0.5277269973370352	-0.2460583695830882	2.052870265617464	-0.5281659131308692	-0.25750859081967814	2.1276393610944617	-0.5829283916226853	-0.26741041199941673	2.051861898057591	-0.4368426184493915	-0.27491492412980756	1.9626598122067025	-0.40498481085850413	-0.28429890825734766	1.8833477411593997	-0.3975288743932997	-0.22201318551544516	2.055957517795666	-0.6199008839692038	-1.4117584965585113	1.8720117411797816	0.620501198910058	-0.20052335901034307	1.9006459512841185	-0.6763879565490255
4	0.13333333333333333	-0.2518954858184422	1.8758933832053957	-0.5244547843485364	-0.2681173243644114	1.873691146312353	-0.46241221444100966	-0.27118094180737523	1.725123705167463	-0.4194299261428151													-0.23236429961613375	1.880351103043021	-0.5967688433832432	-0.22976938600606367	1.7279877260936252	-0.5674862478628823	-0.22208745876342684	1.5823786352278348	-0.5612318997110014	-0.22368747734500483	1.5476068874071702	-0.6430096275518848	-0.21423449160294467	1.5597119757846143	-0.6490085709639694	-0.22352749176873346	1.567509537529645	-0.5279082122744275	-0.24514652692949931	2.052705238592447	-0.525207994174385	-0.25749448862897173	2.1276490718617613	-0.5829241914231722	-0.26741216545731317	2.0518633162558215	-0.43678349381944437	-0.2749010605771418	1.95884194695959	-0.4041439488293966	-0.2841879067611373	1.8802477960200394	-0.3969478309337598	-0.22109315207976282	2.0546073881531943	-0.6165740492599561	-1.4117584965585113	1.8720117411797816	0.620501198910058	-0.20052335901034307	1.9006459512841185	-0.6763879565490255
5	0.16666666666666666	-0.25054700084368725	1.8779711879236343	-0.529869004662638	-0.26779545684436395	1.875612044468531	-0.4627705679446562	-0.2711810093267605	1.7250838239545239	-0.41943199267579007													-0.23295500852673348	1.8828152047450288	-0.6002580880211043	-0.22961202033180395	1.729805367129858	-0.5678682398623434	-0.2214050638783513	1.584215110380577	-0.557795873934353	-0.22446847982591775	1.5491757365474317	-0.6468431613508059	-0.21512208441153363	1.5619897996100651	-0.6528394117412663	-0.221690813939711	1.5663296487458782	-0.5293258545209016	-0.24415470583339355	2.052893426648637	-0.530174074527072	-0.2574678817902513	2.1264277504810027	-0.5823697564211376	-0.26745415519378557	2.0507488922707973	-0.4369275348716027	-0.2749254019818472	1.9589889762482149	-0.4041000154660298	-0.28541333619208903	1.8814604439792122	-0.4004383626496209	-0.22109889871372496	2.054649145394018	-0.6165869706154182	-1.4117584965585113	1.8720117411797816	0.620501198910058	-0.20052335901034307	1.9006459512841185	-0.6763879565490255
6	0.2	-0.2509588770379087	1.8777779415808717	-0.5297904524538835	-0.26623318654820965	1.8777635965489092	-0.46518663371388613	-0.27118107684614573	1.7250439427415845	-0.41943405920876503													-0.23247374118015204	1.8821990460530187	-0.5970219289029887	-0.23003449436159049	1.7301005351631504	-0.5673922310578655	-0.22019621895041228	1.5831610161264096	-0.5633605167410056	-0.22601042705423188	1.5509563503931192	-0.641053169384378	-0.2141459601721433	1.5617284106398195	-0.6495401881249935	-0.22167569709848287	1.5686575268646128	-0.5301772161829421	-0.2460400354336126	2.0528413932345404	-0.5281448126718445	-0.2574830498992349	2.1264289115313337	-0.5823479509305782	-0.2673734065081577	2.051883167355035	-0.43681096833922023	-0.274819326857267	1.9614916601130767	-0.40460335842031775	-0.2841684221750979	1.8822621972369826	-0.39730969081541145	-0.22199696335441615	2.056003510256649	-0.6199026210553468	-1.4117584965585113	1.8720117411797816	0.620501198910058	-0.20052335901034307	1.9006459512841185	-0.6763879565490255
7	0.23333333333333334	-0.25087359089457173	1.8757012581392467	-0.5295674175238392	-0.2660802882519737	1.8743067073841717	-0.46472108316340394	-0.271181144365531	1.7250040615286453	-0.41943612574174005													-0.23312722535890093	1.8817600387533457	-0.6000620727036999	-0.2297930056458567	1.7281765150895325	-0.5675211576045746	-0.2203672240213799	1.5845886035711403	-0.5630813164814343	-0.22389418518106927	1.5485649530356072	-0.6430479283706443	-0.21201800270477839	1.5621142607645895	-0.6517680499014271	-0.2198537301473884	1.5673661952212057	-0.5316107088078154	-0.2460474961465074	2.0528600191931483	-0.5280953272420094	-0.2574783413174465	2.12762306932925	-0.5829418505719134	-0.26745016477636985	2.049477228508002	-0.4363656673554605	-0.2749076719553469	1.958949253358093	-0.40413787368272835	-0.28530347512819965	1.8802538670504954	-0.40018031257308706	-0.22112279830294065	2.0547237741754376	-0.6165517890674147	-1.4117584965585113	1.8720117411797816	0.620501198910058	-0.20052335901034307	1.9006459512841185	-0.6763879565490255
8	0.26666666666666666	-0.24976491784636012	1.8768291303003346	-0.5267351831062159	-0.2648448612216626	1.8759239837466395	-0.46167701135172773	-0.2711812118849163	1.7249641803157059	-0.419438192274715													-0.23217658085870002	1.8815471469339276	-0.5969668537562828	-0.22961565910083123	1.729579404147511	-0.5678068825067862	-0.22224313355639427	1.58345941134289	-0.5611714079797345	-0.22382717937433594	1.5482575364473397	-0.6429564608080506	-0.21411717939675	1.5618931638085072	-0.6495733447310162	-0.2216228613616269	1.5682796913813823	-0.5299248461526193	-0.24415706503486503	2.0529095214307786	-0.5302171896843796	-0.2555766717047742	2.127616570150085	-0.5849449445821026	-0.267347458420676	2.0518441562468075	-0.43689687954200146	-0.2747952778121755	1.9600529487279164	-0.4042169033696577	-0.2840418133003031	1.8835301309581898	-0.3973931707774216	-0.22194395888578664	2.054984592555434	-0.6194615066596391	-1.4117584965585113	1.8720117411797816	0.620501198910058	-0.20052335901034307	1.9006459512841185	-0.6763879565490255
9	0.3	-0.2509199518969105	1.877326017608527	-0.5298025966485742	-0.26611136271755137	1.8762467246136303	-0.4649904725255544	-0.27118127940430153	1.7249242991027667	-0.41944025880769													-0.23226656398063028	1.8831998409617454	-0.5971168728360878	-0.2299961123683634	1.7300463615552464	-0.56748946625393	-0.22043617951594544	1.5818313586965342	-0.5627972641400474	-0.2208691138169244	1.5495224073815	-0.6416570531516556	-0.21185203004959163	1.5615607703366847	-0.6517293519486	-0.22173740068209047	1.56612800866044	-0.529831466113252	-0.24416115278366446	2.052877434765993	-0.530178715343181	-0.2574806269543785	2.1276259209490656	-0.582941542240393	-0.26745520412008844	2.0507665988290307	-0.43691190599797464	-0.274949926414658	1.9601536493494263	-0.4047021884205686	-0.2842470160250877	1.883368771292929	-0.39759901739761205	-0.2219472066406985	2.0548259371343516	-0.619470670177087	-1.4117584965585113	1.8720117411797816	0.620501198910058	-0.20052335901034307	1.9006459512841185	-0.6763879565490255
10	0.3333333333333333	-0.24985947572703152	1.8783812345359006	-0.5269632469285862	-0.26615497459696796	1.876149322626487	-0.4649545237985331	-0.2711813469236868	1.7248844178898275	-0.419442325340665													-0.23223364207289665	1.882924717748002	-0.5970909378477839	-0.22750384021438055	1.72896405567571	-0.5700115315981743	-0.22204050293373376	1.5822357846077002	-0.5612906288263952	-0.2260529137259628	1.548590393139946	-0.6404384882903565	-0.21393639889348545	1.5605520330188456	-0.6495046582606548	-0.22334298906194835	1.5664535879431758	-0.5282694978009752	-0.24414948073199752	2.052946450378056	-0.5302388822503055	-0.25556372229206864	2.1276732573496417	-0.5849601967198503	-0.26747535685420043	2.050770738822603	-0.43701427579904667	-0.274779175890538	1.959953793933572	-0.40434917027934875	-0.28357200651786835	1.881583055749924	-0.3967181872361994	-0.2199150936956361	2.054879186795269	-0.6215894136617351	-1.4117584965585113	1.8720117411797816	0.620501198910058	-0.20052335901034307	1.9006459512841185	-0.6763879565490255
